<svg width="28" height="28" viewBox="0 0 28 28" fill="none" xmlns="http://www.w3.org/2000/svg">
<path d="M24.9667 21.7002L21.7 18.4335C22.75 16.8002 23.3334 14.9335 23.3334 12.8335C23.3334 7.00016 18.6667 2.3335 12.8334 2.3335C7.00004 2.3335 2.33337 7.00016 2.33337 12.8335C2.33337 18.6668 7.00004 23.3335 12.8334 23.3335C14.9334 23.3335 16.8 22.7502 18.4334 21.7002L21.7 24.9668C22.6334 25.9002 24.0334 25.9002 24.9667 24.9668C25.9 24.0335 25.9 22.6335 24.9667 21.7002ZM12.8334 21.0002C8.28337 21.0002 4.66671 17.3835 4.66671 12.8335C4.66671 8.2835 8.28337 4.66683 12.8334 4.66683C17.3834 4.66683 21 8.2835 21 12.8335C21 17.3835 17.3834 21.0002 12.8334 21.0002Z" fill="#7988A4"/>
<path d="M16.3334 9.3335H9.33341C8.63341 9.3335 8.16675 9.91683 8.16675 10.5002C8.16675 11.2002 8.63341 11.6668 9.33341 11.6668H16.3334C17.0334 11.6668 17.5001 11.2002 17.5001 10.5002C17.5001 9.91683 17.0334 9.3335 16.3334 9.3335Z" fill="#7988A4"/>
<path d="M12.8334 14H9.33342C8.63342 14 8.16675 14.4667 8.16675 15.1667C8.16675 15.8667 8.63342 16.3333 9.33342 16.3333H12.8334C13.5334 16.3333 14.0001 15.8667 14.0001 15.1667C14.0001 14.5833 13.5334 14 12.8334 14Z" fill="#7988A4"/>
</svg>
